<svg xmlns="http://www.w3.org/2000/svg" version="1.1" width="500px" height="500px" style="shape-rendering:geometricPrecision; text-rendering:geometricPrecision; image-rendering:optimizeQuality; fill-rule:evenodd; clip-rule:evenodd" xmlns:xlink="http://www.w3.org/1999/xlink">
<g><path style="opacity:1" fill="#b7e0f4" d="M 297.5,23.5 C 288.75,19.9328 280.083,16.0995 271.5,12C 256.181,10.2147 240.848,10.0481 225.5,11.5C 248.702,4.94841 271.035,7.44841 292.5,19C 294.618,20.0491 296.284,21.5491 297.5,23.5 Z"/></g>
<g><path style="opacity:1" fill="#a3ddfd" d="M 297.5,23.5 C 305.769,28.6007 312.602,35.2674 318,43.5C 331.702,68.2377 344.868,93.2377 357.5,118.5C 355.194,117.215 353.361,117.882 352,120.5C 352.824,116.175 352.657,111.842 351.5,107.5C 350.178,107.67 349.011,107.337 348,106.5C 347.667,104.833 347.333,103.167 347,101.5C 324.193,76.0513 295.693,61.718 261.5,58.5C 261.5,57.8333 261.167,57.5 260.5,57.5C 249.036,43.8664 237.37,30.3664 225.5,17C 222.463,14.1518 218.796,12.9852 214.5,13.5C 217.946,12.3126 221.613,11.6459 225.5,11.5C 240.848,10.0481 256.181,10.2147 271.5,12C 280.083,16.0995 288.75,19.9328 297.5,23.5 Z"/></g>
<g><path style="opacity:1" fill="#8ad4fd" d="M 214.5,13.5 C 218.796,12.9852 222.463,14.1518 225.5,17C 237.37,30.3664 249.036,43.8664 260.5,57.5C 248.027,57.2378 235.694,58.4044 223.5,61C 217.933,62.7834 212.599,65.1167 207.5,68C 205.845,69.4443 205.178,71.2776 205.5,73.5C 201.817,72.6798 199.483,74.0131 198.5,77.5C 195.956,77.8957 193.789,77.229 192,75.5C 190.752,71.0181 190.252,66.5181 190.5,62C 175.349,50.8243 160.016,39.8243 144.5,29C 131.061,29.6279 117.728,31.2945 104.5,34C 101.49,34.6125 99.1571,36.1125 97.5,38.5C 95.2273,38.0432 93.894,36.7099 93.5,34.5C 133.733,26.9611 174.067,19.9611 214.5,13.5 Z"/></g>
<g><path style="opacity:1" fill="#67c6fc" d="M 198.5,77.5 C 193.491,82.2672 191.158,88.2672 191.5,95.5C 160.187,76.5317 128.854,57.5317 97.5,38.5C 99.1571,36.1125 101.49,34.6125 104.5,34C 117.728,31.2945 131.061,29.6279 144.5,29C 160.016,39.8243 175.349,50.8243 190.5,62C 190.252,66.5181 190.752,71.0181 192,75.5C 193.789,77.229 195.956,77.8957 198.5,77.5 Z"/></g>
<g><path style="opacity:1" fill="#afe1fc" d="M 93.5,34.5 C 93.894,36.7099 95.2273,38.0432 97.5,38.5C 128.854,57.5317 160.187,76.5317 191.5,95.5C 191.365,98.4175 192.032,101.084 193.5,103.5C 174.517,92.8613 155.517,82.1947 136.5,71.5C 136.167,70.5 135.5,69.8333 134.5,69.5C 115.695,59.5989 97.3612,48.9322 79.5,37.5C 84.0593,35.9882 88.726,34.9882 93.5,34.5 Z"/></g>
<g><path style="opacity:1" fill="#66c6fd" d="M 260.5,57.5 C 261.167,57.5 261.5,57.8333 261.5,58.5C 312.384,114.572 363.051,170.905 413.5,227.5C 414.609,229.214 413.942,229.881 411.5,229.5C 400.467,223.656 389.801,217.322 379.5,210.5C 388.151,212.21 388.817,210.377 381.5,205C 377.301,202.07 372.968,199.403 368.5,197C 358.794,187.969 348.461,179.635 337.5,172C 332.167,168.667 326.833,165.333 321.5,162C 314.22,154.499 305.886,148.166 296.5,143C 288.409,135.895 280.075,129.229 271.5,123C 269.22,122.297 267.22,121.131 265.5,119.5C 263.877,123.058 261.21,124.224 257.5,123C 256.196,122.196 255.529,121.029 255.5,119.5C 256.704,117.526 257.537,115.526 258,113.5C 243.788,102.607 229.621,91.774 215.5,81C 211.996,79.0823 208.663,76.9157 205.5,74.5C 203.206,75.7057 200.873,76.7057 198.5,77.5C 199.483,74.0131 201.817,72.6798 205.5,73.5C 205.178,71.2776 205.845,69.4443 207.5,68C 212.599,65.1167 217.933,62.7834 223.5,61C 235.694,58.4044 248.027,57.2378 260.5,57.5 Z"/></g>
<g><path style="opacity:1" fill="#89d3fd" d="M 261.5,58.5 C 295.693,61.718 324.193,76.0513 347,101.5C 347.333,103.167 347.667,104.833 348,106.5C 349.011,107.337 350.178,107.67 351.5,107.5C 352.657,111.842 352.824,116.175 352,120.5C 353.361,117.882 355.194,117.215 357.5,118.5C 378.167,156.5 398.833,194.5 419.5,232.5C 419.167,233.5 418.5,234.167 417.5,234.5C 415.941,232.376 413.941,230.709 411.5,229.5C 413.942,229.881 414.609,229.214 413.5,227.5C 363.051,170.905 312.384,114.572 261.5,58.5 Z"/></g>
<g><path style="opacity:1" fill="#3bb6fc" d="M 379.5,210.5 C 376.669,209.921 374.336,208.588 372.5,206.5C 312.534,169.263 252.2,132.263 191.5,95.5C 191.158,88.2672 193.491,82.2672 198.5,77.5C 200.873,76.7057 203.206,75.7057 205.5,74.5C 208.663,76.9157 211.996,79.0823 215.5,81C 229.621,91.774 243.788,102.607 258,113.5C 257.537,115.526 256.704,117.526 255.5,119.5C 255.529,121.029 256.196,122.196 257.5,123C 261.21,124.224 263.877,123.058 265.5,119.5C 267.22,121.131 269.22,122.297 271.5,123C 280.075,129.229 288.409,135.895 296.5,143C 305.886,148.166 314.22,154.499 321.5,162C 326.833,165.333 332.167,168.667 337.5,172C 348.461,179.635 358.794,187.969 368.5,197C 372.968,199.403 377.301,202.07 381.5,205C 388.817,210.377 388.151,212.21 379.5,210.5 Z"/></g>
<g><path style="opacity:1" fill="#82e8eb" d="M 134.5,71.5 C 135.492,79.3159 135.826,87.3159 135.5,95.5C 135.167,95.5 134.833,95.5 134.5,95.5C 134.666,91.1539 134.499,86.8206 134,82.5C 123.842,165.765 114.009,249.098 104.5,332.5C 104.572,334.56 104.905,336.56 105.5,338.5C 113.077,340.102 120.41,339.436 127.5,336.5C 126.64,373.834 125.307,410.834 123.5,447.5C 117.422,441.758 112.088,435.425 107.5,428.5C 104.855,424.668 102.355,420.668 100,416.5C 99,415.833 98,415.167 97,414.5C 96.0435,411.07 95.5435,407.57 95.5,404C 97.9324,382.806 100.599,361.64 103.5,340.5C 103.167,339.5 102.833,338.5 102.5,337.5C 100.205,336.568 97.8713,335.735 95.5,335C 85.282,327.373 76.782,318.207 70,307.5C 69.51,306.207 69.3433,304.873 69.5,303.5C 68.1779,303.67 67.0113,303.337 66,302.5C 64.4022,299.384 63.5688,296.051 63.5,292.5C 65.5333,285.974 67.0333,279.307 68,272.5C 69.3974,271.774 70.2308,270.607 70.5,269C 74.4559,255.464 78.6226,241.964 83,228.5C 86.3863,222.627 88.3863,216.294 89,209.5C 98.3922,185.587 106.392,161.254 113,136.5C 114.229,131.471 116.229,126.804 119,122.5C 119.548,118.83 120.048,115.163 120.5,111.5C 121.5,111.5 122.5,111.5 123.5,111.5C 124.784,101.698 127.617,92.3649 132,83.5C 132.327,79.3709 133.16,75.3709 134.5,71.5 Z"/></g>
<g><path style="opacity:1" fill="#98d8fa" d="M 191.5,95.5 C 252.2,132.263 312.534,169.263 372.5,206.5C 312.336,172.921 252.669,138.588 193.5,103.5C 192.032,101.084 191.365,98.4175 191.5,95.5 Z"/></g>
<g><path style="opacity:1" fill="#7b54e9" d="M 190.5,133.5 C 192.703,133.604 194.703,134.27 196.5,135.5C 193.023,136.323 189.356,136.823 185.5,137C 183.68,137.2 182.347,138.034 181.5,139.5C 178.733,139.87 176.733,141.204 175.5,143.5C 174.508,143.328 173.842,143.662 173.5,144.5C 170.873,145.092 168.206,145.425 165.5,145.5C 166.568,144.566 167.901,144.232 169.5,144.5C 169.261,142.533 169.594,140.699 170.5,139C 174.163,138.03 177.496,136.363 180.5,134C 183.817,133.502 187.15,133.335 190.5,133.5 Z"/></g>
<g><path style="opacity:1" fill="#8f66de" d="M 190.5,133.5 C 187.15,133.335 183.817,133.502 180.5,134C 177.496,136.363 174.163,138.03 170.5,139C 169.594,140.699 169.261,142.533 169.5,144.5C 167.901,144.232 166.568,144.566 165.5,145.5C 165.167,145.5 164.833,145.5 164.5,145.5C 168.553,137.043 175.387,132.71 185,132.5C 187.033,132.506 188.866,132.839 190.5,133.5 Z"/></g>
<g><path style="opacity:1" fill="#73c9fb" d="M 196.5,135.5 C 203.534,139.012 210.201,143.012 216.5,147.5C 210.957,145.69 205.291,144.857 199.5,145C 200.167,145.667 200.833,146.333 201.5,147C 223.331,159.414 244.998,172.081 266.5,185C 267.5,185.667 268.5,185.667 269.5,185C 265.868,180.366 261.868,176.033 257.5,172C 255.608,171.027 253.608,170.36 251.5,170C 252.252,169.329 252.586,168.496 252.5,167.5C 273.034,179.263 293.367,191.263 313.5,203.5C 309.142,201.904 304.975,199.904 301,197.5C 299.765,198.615 298.598,198.615 297.5,197.5C 296.267,199.404 294.934,200.404 293.5,200.5C 285.923,196.592 278.59,192.259 271.5,187.5C 271.167,187.667 270.833,187.833 270.5,188C 271.357,188.689 272.023,189.522 272.5,190.5C 270.926,191.631 269.259,191.798 267.5,191C 267.833,190.667 268.167,190.333 268.5,190C 257.316,183.333 245.982,176.833 234.5,170.5C 232.065,167.205 228.732,165.371 224.5,165C 215.284,158.425 205.617,152.758 195.5,148C 189.181,146.663 183.514,147.997 178.5,152C 177.968,154.463 176.634,156.297 174.5,157.5C 175.657,151.494 178.99,146.994 184.5,144C 182.167,143.667 179.833,143.333 177.5,143C 179.91,142.943 181.244,141.776 181.5,139.5C 182.347,138.034 183.68,137.2 185.5,137C 189.356,136.823 193.023,136.323 196.5,135.5 Z"/></g>
<g><path style="opacity:1" fill="#90d5fe" d="M 293.5,200.5 C 294.114,202.283 295.28,203.616 297,204.5C 298.341,212.261 297.174,219.594 293.5,226.5C 291.082,227.457 288.916,228.791 287,230.5C 286.517,229.552 286.351,228.552 286.5,227.5C 267.819,236.344 249.819,246.51 232.5,258C 233,258.167 233.5,258.333 234,258.5C 237.021,256.993 240.188,255.993 243.5,255.5C 226.563,265.307 209.563,275.14 192.5,285C 181.984,288.327 175.984,284.493 174.5,273.5C 175.879,276.344 177.879,278.844 180.5,281C 184.167,281.667 187.833,281.667 191.5,281C 203.13,274.851 214.463,268.184 225.5,261C 203.324,260.15 188.491,249.317 181,228.5C 178.281,220.529 176.114,212.529 174.5,204.5C 174.5,188.833 174.5,173.167 174.5,157.5C 176.634,156.297 177.968,154.463 178.5,152C 183.514,147.997 189.181,146.663 195.5,148C 205.617,152.758 215.284,158.425 224.5,165C 228.732,165.371 232.065,167.205 234.5,170.5C 245.982,176.833 257.316,183.333 268.5,190C 268.167,190.333 267.833,190.667 267.5,191C 269.259,191.798 270.926,191.631 272.5,190.5C 272.023,189.522 271.357,188.689 270.5,188C 270.833,187.833 271.167,187.667 271.5,187.5C 278.59,192.259 285.923,196.592 293.5,200.5 Z"/></g>
<g><path style="opacity:1" fill="#392cd7" d="M 169.5,151.5 C 169.5,152.167 169.5,152.833 169.5,153.5C 168.833,196.5 168.167,239.5 167.5,282.5C 167.5,281.833 167.5,281.167 167.5,280.5C 167.333,237.832 167.5,195.165 168,152.5C 168.383,151.944 168.883,151.611 169.5,151.5 Z"/></g>
<g><path style="opacity:1" fill="#46b5f9" d="M 216.5,147.5 C 228.738,153.738 240.738,160.404 252.5,167.5C 252.586,168.496 252.252,169.329 251.5,170C 253.608,170.36 255.608,171.027 257.5,172C 261.868,176.033 265.868,180.366 269.5,185C 268.5,185.667 267.5,185.667 266.5,185C 244.998,172.081 223.331,159.414 201.5,147C 200.833,146.333 200.167,145.667 199.5,145C 205.291,144.857 210.957,145.69 216.5,147.5 Z"/></g>
<g><path style="opacity:1" fill="#581be5" d="M 173.5,144.5 C 172.416,147.004 171.083,149.337 169.5,151.5C 168.883,151.611 168.383,151.944 168,152.5C 167.5,195.165 167.333,237.832 167.5,280.5C 165.178,279.198 163.845,277.198 163.5,274.5C 163.333,233.499 163.5,192.499 164,151.5C 164.505,149.482 165.005,147.482 165.5,145.5C 168.206,145.425 170.873,145.092 173.5,144.5 Z"/></g>
<g><path style="opacity:0.082" fill="#e9fefe" d="M 134.5,69.5 C 135.5,69.8333 136.167,70.5 136.5,71.5C 136.832,137.669 136.499,203.669 135.5,269.5C 135.5,222.167 135.5,174.833 135.5,127.5C 135.5,116.833 135.5,106.167 135.5,95.5C 135.826,87.3159 135.492,79.3159 134.5,71.5C 134.5,70.8333 134.5,70.1667 134.5,69.5 Z"/></g>
<g><path style="opacity:1" fill="#68c7fc" d="M 313.5,203.5 C 320.766,206.801 327.766,210.634 334.5,215C 344.29,224.666 345.79,235.499 339,247.5C 336.584,250.423 333.75,252.757 330.5,254.5C 317.658,259.588 305.325,265.754 293.5,273C 265.486,285.862 237.819,299.362 210.5,313.5C 207.444,312.704 204.444,311.704 201.5,310.5C 195.532,311.581 189.532,311.748 183.5,311C 178.547,309.857 174.214,307.69 170.5,304.5C 170.334,298.491 170.501,292.491 171,286.5C 178.981,297.729 189.481,305.395 202.5,309.5C 228.933,299.802 254.933,289.136 280.5,277.5C 285.874,262.685 287.874,247.352 286.5,231.5C 284.692,231.491 283.025,231.991 281.5,233C 268.975,240.761 256.309,248.261 243.5,255.5C 240.188,255.993 237.021,256.993 234,258.5C 233.5,258.333 233,258.167 232.5,258C 249.819,246.51 267.819,236.344 286.5,227.5C 286.351,228.552 286.517,229.552 287,230.5C 288.916,228.791 291.082,227.457 293.5,226.5C 297.174,219.594 298.341,212.261 297,204.5C 295.28,203.616 294.114,202.283 293.5,200.5C 294.934,200.404 296.267,199.404 297.5,197.5C 298.598,198.615 299.765,198.615 301,197.5C 304.975,199.904 309.142,201.904 313.5,203.5 Z"/></g>
<g><path style="opacity:1" fill="#5aaafe" d="M 175.5,143.5 C 174.357,146.684 173.691,150.017 173.5,153.5C 172.5,153.5 171.5,153.5 170.5,153.5C 170.737,203.84 170.404,254.173 169.5,304.5C 169.5,309.5 169.5,314.5 169.5,319.5C 169.167,319.5 168.833,319.5 168.5,319.5C 169.315,264.171 169.649,208.837 169.5,153.5C 169.5,152.833 169.5,152.167 169.5,151.5C 171.083,149.337 172.416,147.004 173.5,144.5C 173.842,143.662 174.508,143.328 175.5,143.5 Z"/></g>
<g><path style="opacity:1" fill="#a7dffe" d="M 275.5,194.5 C 279.552,196.855 283.885,198.689 288.5,200C 298.453,207 299.12,215 290.5,224C 289.234,224.309 288.067,224.809 287,225.5C 283.699,214.912 279.866,204.578 275.5,194.5 Z"/></g>
<g><path style="opacity:1" fill="#5920c9" d="M 164.5,145.5 C 164.833,145.5 165.167,145.5 165.5,145.5C 165.005,147.482 164.505,149.482 164,151.5C 163.5,192.499 163.333,233.499 163.5,274.5C 163.167,274.5 162.833,274.5 162.5,274.5C 162.5,233.5 162.5,192.5 162.5,151.5C 162.259,149.102 162.926,147.102 164.5,145.5 Z"/></g>
<g><path style="opacity:1" fill="#bca3f2" d="M 468.5,219.5 C 465.889,218.649 463.223,218.482 460.5,219C 458.406,218.138 457.406,216.972 457.5,215.5C 455.878,217.439 454.044,217.772 452,216.5C 447.443,219.532 442.609,222.198 437.5,224.5C 438.641,225.425 438.641,226.259 437.5,227C 434.854,227.497 432.187,227.664 429.5,227.5C 444.204,218.727 459.038,210.06 474,201.5C 474.5,201.833 475,202.167 475.5,202.5C 473.336,208.348 471.003,214.014 468.5,219.5 Z"/></g>
<g><path style="opacity:1" fill="#b4f1f2" d="M 63.5,185.5 C 63.6567,186.873 63.49,188.207 63,189.5C 58.932,194.365 55.5986,199.699 53,205.5C 53.4711,209.468 52.6378,213.301 50.5,217C 50.3852,231.003 50.5519,245.17 51,259.5C 51.8333,263.5 52.6667,267.5 53.5,271.5C 56.9087,278.815 59.5753,286.482 61.5,294.5C 59.0227,302.742 57.0227,311.075 55.5,319.5C 54.5,319.5 53.5,319.5 52.5,319.5C 50.9134,330.258 47.9134,340.591 43.5,350.5C 45.7337,352.381 47.067,354.715 47.5,357.5C 35.9309,346.085 26.4309,333.085 19,318.5C 10.281,294.068 11.9477,270.401 24,247.5C 36.9415,226.599 50.1081,205.933 63.5,185.5 Z"/></g>
<g><path style="opacity:1" fill="#3ab6fd" d="M 181.5,139.5 C 181.244,141.776 179.91,142.943 177.5,143C 179.833,143.333 182.167,143.667 184.5,144C 178.99,146.994 175.657,151.494 174.5,157.5C 174.5,173.167 174.5,188.833 174.5,204.5C 174.5,227.5 174.5,250.5 174.5,273.5C 175.984,284.493 181.984,288.327 192.5,285C 209.563,275.14 226.563,265.307 243.5,255.5C 256.309,248.261 268.975,240.761 281.5,233C 283.025,231.991 284.692,231.491 286.5,231.5C 287.874,247.352 285.874,262.685 280.5,277.5C 254.933,289.136 228.933,299.802 202.5,309.5C 189.481,305.395 178.981,297.729 171,286.5C 170.501,292.491 170.334,298.491 170.5,304.5C 170.167,304.5 169.833,304.5 169.5,304.5C 170.404,254.173 170.737,203.84 170.5,153.5C 171.5,153.5 172.5,153.5 173.5,153.5C 173.691,150.017 174.357,146.684 175.5,143.5C 176.733,141.204 178.733,139.87 181.5,139.5 Z"/></g>
<g><path style="opacity:1" fill="#824cef" d="M 463.5,233.5 C 463.5,233.833 463.5,234.167 463.5,234.5C 459.407,239.361 456.907,245.028 456,251.5C 454.247,254.675 452.747,258.009 451.5,261.5C 434.98,268.265 418.647,275.265 402.5,282.5C 400.498,278.22 397.664,277.554 394,280.5C 393.808,282.577 393.308,284.577 392.5,286.5C 389.471,287.84 386.471,289.173 383.5,290.5C 381.86,282.188 377.526,275.854 370.5,271.5C 370.5,271.167 370.5,270.833 370.5,270.5C 402.302,254.099 433.969,237.432 465.5,220.5C 465.833,221 466.167,221.5 466.5,222C 464.683,225.573 463.683,229.407 463.5,233.5 Z"/></g>
<g><path style="opacity:1" fill="#bc9cfa" d="M 468.5,219.5 C 467.208,224.382 465.541,229.048 463.5,233.5C 463.683,229.407 464.683,225.573 466.5,222C 466.167,221.5 465.833,221 465.5,220.5C 433.969,237.432 402.302,254.099 370.5,270.5C 368.833,269.167 367.167,267.833 365.5,266.5C 368.067,266.855 370.567,267.521 373,268.5C 382.887,261.743 393.387,256.076 404.5,251.5C 407.433,249.262 407.099,248.262 403.5,248.5C 403.5,247.5 403.5,246.5 403.5,245.5C 406.167,245.5 408.833,245.5 411.5,245.5C 411.703,243.61 411.037,242.11 409.5,241C 411.706,239.193 414.039,238.693 416.5,239.5C 417.935,237.599 419.602,237.266 421.5,238.5C 420.91,239.799 419.91,240.632 418.5,241C 422.154,242.001 425.154,241.001 427.5,238C 418.248,235.652 418.248,233.152 427.5,230.5C 428.425,229.643 429.092,228.643 429.5,227.5C 432.187,227.664 434.854,227.497 437.5,227C 438.641,226.259 438.641,225.425 437.5,224.5C 442.609,222.198 447.443,219.532 452,216.5C 454.044,217.772 455.878,217.439 457.5,215.5C 457.406,216.972 458.406,218.138 460.5,219C 463.223,218.482 465.889,218.649 468.5,219.5 Z"/></g>
<g><path style="opacity:1" fill="#bca1f3" d="M 429.5,227.5 C 429.092,228.643 428.425,229.643 427.5,230.5C 418.248,233.152 418.248,235.652 427.5,238C 425.154,241.001 422.154,242.001 418.5,241C 419.91,240.632 420.91,239.799 421.5,238.5C 419.602,237.266 417.935,237.599 416.5,239.5C 414.039,238.693 411.706,239.193 409.5,241C 411.037,242.11 411.703,243.61 411.5,245.5C 408.833,245.5 406.167,245.5 403.5,245.5C 403.5,246.5 403.5,247.5 403.5,248.5C 407.099,248.262 407.433,249.262 404.5,251.5C 393.387,256.076 382.887,261.743 373,268.5C 370.567,267.521 368.067,266.855 365.5,266.5C 363.784,266.629 362.117,266.962 360.5,267.5C 379.001,255.746 398.001,244.746 417.5,234.5C 418.5,234.167 419.167,233.5 419.5,232.5C 422.86,230.82 426.193,229.153 429.5,227.5 Z"/></g>
<g><path style="opacity:1" fill="#aae0fe" d="M 174.5,204.5 C 176.114,212.529 178.281,220.529 181,228.5C 188.491,249.317 203.324,260.15 225.5,261C 214.463,268.184 203.13,274.851 191.5,281C 187.833,281.667 184.167,281.667 180.5,281C 177.879,278.844 175.879,276.344 174.5,273.5C 174.5,250.5 174.5,227.5 174.5,204.5 Z"/></g>
<g><path style="opacity:1" fill="#5ee0e5" d="M 134.5,95.5 C 132.5,175.501 130.5,255.501 128.5,335.5C 127.833,335.5 127.5,335.833 127.5,336.5C 120.41,339.436 113.077,340.102 105.5,338.5C 104.905,336.56 104.572,334.56 104.5,332.5C 114.009,249.098 123.842,165.765 134,82.5C 134.499,86.8206 134.666,91.1539 134.5,95.5 Z"/></g>
<g><path style="opacity:1" fill="#9e74f2" d="M 463.5,234.5 C 460.009,244.315 456.343,253.982 452.5,263.5C 446.889,272.653 443.223,282.653 441.5,293.5C 441.5,294.167 441.5,294.833 441.5,295.5C 440.624,295.369 439.957,295.702 439.5,296.5C 437.75,302.418 435.417,308.085 432.5,313.5C 431.512,316.782 430.846,320.115 430.5,323.5C 427.792,326.956 426.459,330.956 426.5,335.5C 426.167,335.5 425.833,335.5 425.5,335.5C 406.024,340.728 386.357,345.062 366.5,348.5C 369.071,343.695 371.904,339.028 375,334.5C 380.565,323.024 383.732,310.858 384.5,298C 384.375,295.449 384.042,292.949 383.5,290.5C 386.471,289.173 389.471,287.84 392.5,286.5C 393.308,284.577 393.808,282.577 394,280.5C 397.664,277.554 400.498,278.22 402.5,282.5C 418.647,275.265 434.98,268.265 451.5,261.5C 452.747,258.009 454.247,254.675 456,251.5C 456.907,245.028 459.407,239.361 463.5,234.5 Z"/></g>
<g><path style="opacity:1" fill="#a2f0f4" d="M 134.5,95.5 C 134.833,95.5 135.167,95.5 135.5,95.5C 135.5,106.167 135.5,116.833 135.5,127.5C 134.501,196.665 134.167,265.998 134.5,335.5C 132.5,335.5 130.5,335.5 128.5,335.5C 130.5,255.501 132.5,175.501 134.5,95.5 Z"/></g>
<g><path style="opacity:1" fill="#ae93e9" d="M 360.5,267.5 C 359.126,271.187 356.459,272.853 352.5,272.5C 352.66,274.199 352.494,275.866 352,277.5C 351.751,276.376 351.251,275.376 350.5,274.5C 349.264,275.246 347.93,275.579 346.5,275.5C 350.833,272.331 355.5,269.664 360.5,267.5 Z"/></g>
<g><path style="opacity:1" fill="#a884f0" d="M 365.5,266.5 C 367.167,267.833 368.833,269.167 370.5,270.5C 370.5,270.833 370.5,271.167 370.5,271.5C 369.833,271.5 369.167,271.5 368.5,271.5C 366.337,272.72 364.17,272.72 362,271.5C 360.273,271.646 360.106,272.313 361.5,273.5C 359.604,274.466 357.604,274.799 355.5,274.5C 355.548,277.292 354.215,279.125 351.5,280C 344.155,282.901 337.155,286.568 330.5,291C 325.251,293.127 319.918,294.96 314.5,296.5C 315.287,294.896 316.62,294.229 318.5,294.5C 318.5,293.5 318.5,292.5 318.5,291.5C 327.5,285.664 336.833,280.331 346.5,275.5C 347.93,275.579 349.264,275.246 350.5,274.5C 351.251,275.376 351.751,276.376 352,277.5C 352.494,275.866 352.66,274.199 352.5,272.5C 356.459,272.853 359.126,271.187 360.5,267.5C 362.117,266.962 363.784,266.629 365.5,266.5 Z"/></g>
<g><path style="opacity:1" fill="#a88ae3" d="M 452.5,263.5 C 449.353,273.774 445.687,283.774 441.5,293.5C 443.223,282.653 446.889,272.653 452.5,263.5 Z"/></g>
<g><path style="opacity:1" fill="#5d17ea" d="M 368.5,271.5 C 369.167,271.5 369.833,271.5 370.5,271.5C 377.526,275.854 381.86,282.188 383.5,290.5C 374.128,295.257 364.462,299.257 354.5,302.5C 353.07,302.579 351.736,302.246 350.5,301.5C 349.276,302.766 347.943,303.933 346.5,305C 335.43,308.377 324.763,312.544 314.5,317.5C 312.227,316.625 311.227,314.958 311.5,312.5C 313.857,312.663 316.19,312.497 318.5,312C 319.167,311 319.833,310 320.5,309C 316.222,309.043 312.055,309.876 308,311.5C 306.027,311.691 304.527,311.024 303.5,309.5C 307.391,307.387 311.391,305.554 315.5,304C 317.07,301.073 319.404,300.073 322.5,301C 325.616,304.592 329.283,305.259 333.5,303C 329.391,302.373 326.724,300.207 325.5,296.5C 329.83,294.792 334.163,292.959 338.5,291C 342.149,288.702 345.482,286.202 348.5,283.5C 355.134,279.513 361.801,275.513 368.5,271.5 Z"/></g>
<g><path style="opacity:1" fill="#addefb" d="M 330.5,254.5 C 284.726,281.226 238.726,307.726 192.5,334C 187.833,334.667 183.167,334.667 178.5,334C 177.263,333.768 176.263,333.268 175.5,332.5C 177.927,330.442 180.593,328.609 183.5,327C 192.64,322.671 201.64,318.171 210.5,313.5C 237.819,299.362 265.486,285.862 293.5,273C 305.325,265.754 317.658,259.588 330.5,254.5 Z"/></g>
<g><path style="opacity:1" fill="#ac8fe8" d="M 318.5,291.5 C 318.5,292.5 318.5,293.5 318.5,294.5C 316.62,294.229 315.287,294.896 314.5,296.5C 311.588,296.789 309.588,298.289 308.5,301C 303.664,302.266 298.998,303.766 294.5,305.5C 302.164,300.332 310.164,295.665 318.5,291.5 Z"/></g>
<g><path style="opacity:1" fill="#9eedf0" d="M 134.5,71.5 C 133.16,75.3709 132.327,79.3709 132,83.5C 127.617,92.3649 124.784,101.698 123.5,111.5C 122.5,111.5 121.5,111.5 120.5,111.5C 120.048,115.163 119.548,118.83 119,122.5C 116.229,126.804 114.229,131.471 113,136.5C 106.392,161.254 98.3922,185.587 89,209.5C 88.3863,216.294 86.3863,222.627 83,228.5C 78.6226,241.964 74.4559,255.464 70.5,269C 70.2308,270.607 69.3974,271.774 68,272.5C 67.0333,279.307 65.5333,285.974 63.5,292.5C 63.5688,296.051 64.4022,299.384 66,302.5C 67.0113,303.337 68.1779,303.67 69.5,303.5C 69.3433,304.873 69.51,306.207 70,307.5C 76.782,318.207 85.282,327.373 95.5,335C 97.8713,335.735 100.205,336.568 102.5,337.5C 102.833,338.5 103.167,339.5 103.5,340.5C 100.599,361.64 97.9324,382.806 95.5,404C 95.5435,407.57 96.0435,411.07 97,414.5C 98,415.167 99,415.833 100,416.5C 102.355,420.668 104.855,424.668 107.5,428.5C 86.7784,405.445 66.7784,381.778 47.5,357.5C 47.067,354.715 45.7337,352.381 43.5,350.5C 47.9134,340.591 50.9134,330.258 52.5,319.5C 53.5,319.5 54.5,319.5 55.5,319.5C 57.0227,311.075 59.0227,302.742 61.5,294.5C 59.5753,286.482 56.9087,278.815 53.5,271.5C 52.6667,267.5 51.8333,263.5 51,259.5C 50.5519,245.17 50.3852,231.003 50.5,217C 52.6378,213.301 53.4711,209.468 53,205.5C 55.5986,199.699 58.932,194.365 63,189.5C 63.49,188.207 63.6567,186.873 63.5,185.5C 86.669,147.156 110.336,109.156 134.5,71.5 Z"/></g>
<g><path style="opacity:1" fill="#824bf0" d="M 383.5,290.5 C 384.042,292.949 384.375,295.449 384.5,298C 383.732,310.858 380.565,323.024 375,334.5C 371.904,339.028 369.071,343.695 366.5,348.5C 331.727,355.528 297.06,362.862 262.5,370.5C 260.473,370.338 258.473,370.505 256.5,371C 255.944,371.383 255.611,371.883 255.5,372.5C 218.102,379.647 180.768,387.313 143.5,395.5C 142.287,395.253 141.62,394.586 141.5,393.5C 147.17,389.663 153.17,386.33 159.5,383.5C 159.063,385.074 158.063,386.241 156.5,387C 157.5,387.667 158.5,387.667 159.5,387C 224.45,358.682 289.45,330.515 354.5,302.5C 364.462,299.257 374.128,295.257 383.5,290.5 Z"/></g>
<g><path style="opacity:1" fill="#7f4ee9" d="M 162.5,274.5 C 162.833,274.5 163.167,274.5 163.5,274.5C 163.845,277.198 165.178,279.198 167.5,280.5C 167.5,281.167 167.5,281.833 167.5,282.5C 167.171,295.011 167.505,307.345 168.5,319.5C 168.286,321.144 168.62,322.644 169.5,324C 168.551,324.617 167.718,324.451 167,323.5C 165.363,320.283 164.03,316.95 163,313.5C 162.5,300.504 162.333,287.504 162.5,274.5 Z"/></g>
<g><path style="opacity:1" fill="#99d8fd" d="M 169.5,304.5 C 169.833,304.5 170.167,304.5 170.5,304.5C 174.214,307.69 178.547,309.857 183.5,311C 189.532,311.748 195.532,311.581 201.5,310.5C 204.444,311.704 207.444,312.704 210.5,313.5C 201.64,318.171 192.64,322.671 183.5,327C 180.593,328.609 177.927,330.442 175.5,332.5C 174.508,332.672 173.842,332.338 173.5,331.5C 174.239,331.631 174.906,331.464 175.5,331C 172.306,327.779 170.306,323.946 169.5,319.5C 169.5,314.5 169.5,309.5 169.5,304.5 Z"/></g>
<g><path style="opacity:1" fill="#5d1ae6" d="M 348.5,283.5 C 345.482,286.202 342.149,288.702 338.5,291C 334.163,292.959 329.83,294.792 325.5,296.5C 326.724,300.207 329.391,302.373 333.5,303C 329.283,305.259 325.616,304.592 322.5,301C 319.404,300.073 317.07,301.073 315.5,304C 311.391,305.554 307.391,307.387 303.5,309.5C 304.527,311.024 306.027,311.691 308,311.5C 312.055,309.876 316.222,309.043 320.5,309C 319.833,310 319.167,311 318.5,312C 316.19,312.497 313.857,312.663 311.5,312.5C 311.227,314.958 312.227,316.625 314.5,317.5C 324.763,312.544 335.43,308.377 346.5,305C 347.943,303.933 349.276,302.766 350.5,301.5C 351.736,302.246 353.07,302.579 354.5,302.5C 289.45,330.515 224.45,358.682 159.5,387C 158.5,387.667 157.5,387.667 156.5,387C 158.063,386.241 159.063,385.074 159.5,383.5C 161.698,383.88 163.365,383.213 164.5,381.5C 166.389,380.396 168.055,379.063 169.5,377.5C 172.614,377.445 174.948,376.112 176.5,373.5C 178.655,373.628 180.655,373.128 182.5,372C 194.927,365.125 207.261,358.291 219.5,351.5C 227.859,347.657 235.859,343.324 243.5,338.5C 243.833,338.5 244.167,338.5 244.5,338.5C 279.203,320.104 313.87,301.771 348.5,283.5 Z"/></g>
<g><path style="opacity:1" fill="#666dec" d="M 169.5,153.5 C 169.649,208.837 169.315,264.171 168.5,319.5C 167.505,307.345 167.171,295.011 167.5,282.5C 168.167,239.5 168.833,196.5 169.5,153.5 Z"/></g>
<g><path style="opacity:1" fill="#ab8fe5" d="M 441.5,295.5 C 438.206,305.062 434.539,314.396 430.5,323.5C 430.846,320.115 431.512,316.782 432.5,313.5C 435.417,308.085 437.75,302.418 439.5,296.5C 439.957,295.702 440.624,295.369 441.5,295.5 Z"/></g>
<g><path style="opacity:1" fill="#a97ff8" d="M 368.5,271.5 C 361.801,275.513 355.134,279.513 348.5,283.5C 313.87,301.771 279.203,320.104 244.5,338.5C 245.875,335.973 247.542,333.64 249.5,331.5C 253.159,330.181 256.826,328.847 260.5,327.5C 261.826,326.358 262.826,325.024 263.5,323.5C 266.912,322.987 270.245,322.153 273.5,321C 273.043,320.586 272.709,320.086 272.5,319.5C 276.73,318.243 280.063,315.91 282.5,312.5C 286.164,309.665 290.164,307.332 294.5,305.5C 298.998,303.766 303.664,302.266 308.5,301C 309.588,298.289 311.588,296.789 314.5,296.5C 319.918,294.96 325.251,293.127 330.5,291C 337.155,286.568 344.155,282.901 351.5,280C 354.215,279.125 355.548,277.292 355.5,274.5C 357.604,274.799 359.604,274.466 361.5,273.5C 360.106,272.313 360.273,271.646 362,271.5C 364.17,272.72 366.337,272.72 368.5,271.5 Z"/></g>
<g><path style="opacity:1" fill="#ac8ee7" d="M 282.5,312.5 C 280.063,315.91 276.73,318.243 272.5,319.5C 272.709,320.086 273.043,320.586 273.5,321C 270.245,322.153 266.912,322.987 263.5,323.5C 269.334,319.079 275.668,315.412 282.5,312.5 Z"/></g>
<g><path style="opacity:1" fill="#9c7aea" d="M 162.5,151.5 C 162.5,192.5 162.5,233.5 162.5,274.5C 162.333,287.504 162.5,300.504 163,313.5C 164.03,316.95 165.363,320.283 167,323.5C 167.718,324.451 168.551,324.617 169.5,324C 168.62,322.644 168.286,321.144 168.5,319.5C 168.833,319.5 169.167,319.5 169.5,319.5C 170.306,323.946 172.306,327.779 175.5,331C 174.906,331.464 174.239,331.631 173.5,331.5C 167.486,327.831 163.653,322.498 162,315.5C 161.168,260.665 161.335,205.998 162.5,151.5 Z"/></g>
<g><path style="opacity:1" fill="#ad93e4" d="M 263.5,323.5 C 262.826,325.024 261.826,326.358 260.5,327.5C 256.826,328.847 253.159,330.181 249.5,331.5C 253.833,328.331 258.5,325.664 263.5,323.5 Z"/></g>
<g><path style="opacity:1" fill="#b297e5" d="M 430.5,323.5 C 429.739,327.784 428.405,331.784 426.5,335.5C 426.459,330.956 427.792,326.956 430.5,323.5 Z"/></g>
<g><path style="opacity:1" fill="#ad8fe7" d="M 249.5,331.5 C 247.542,333.64 245.875,335.973 244.5,338.5C 244.167,338.5 243.833,338.5 243.5,338.5C 239.167,339.833 234.833,341.167 230.5,342.5C 236.334,338.079 242.668,334.412 249.5,331.5 Z"/></g>
<g><path style="opacity:1" fill="#a980f5" d="M 243.5,338.5 C 235.859,343.324 227.859,347.657 219.5,351.5C 220.916,349.821 222.25,348.154 223.5,346.5C 225.336,344.412 227.669,343.079 230.5,342.5C 234.833,341.167 239.167,339.833 243.5,338.5 Z"/></g>
<g><path style="opacity:1" fill="#b694f6" d="M 425.5,335.5 C 423.186,342.964 420.02,349.964 416,356.5C 414.806,354.377 414.14,352.043 414,349.5C 409.69,345.571 404.857,344.738 399.5,347C 395.797,350.342 394.631,354.509 396,359.5C 401.765,364.735 407.598,364.735 413.5,359.5C 413.833,360.167 414.167,360.833 414.5,361.5C 412.438,363.36 411.105,365.694 410.5,368.5C 409.391,367.41 408.391,367.41 407.5,368.5C 408.309,370.071 408.643,371.738 408.5,373.5C 404.123,375.877 400.79,379.21 398.5,383.5C 397.167,383.5 395.833,383.5 394.5,383.5C 393.188,386.536 390.854,388.702 387.5,390C 385.299,390.825 383.466,390.325 382,388.5C 378.889,391.113 376.723,393.946 375.5,397C 368.29,399.976 360.79,401.809 353,402.5C 323.983,402.342 294.816,402.009 265.5,401.5C 255.985,401.827 246.652,401.494 237.5,400.5C 243.5,400.5 249.5,400.5 255.5,400.5C 268.871,400.832 282.204,400.332 295.5,399C 324.624,389.69 348.29,372.857 366.5,348.5C 386.357,345.062 406.024,340.728 425.5,335.5 Z"/></g>
<g><path style="opacity:1" fill="#c9b1f7" d="M 425.5,335.5 C 425.833,335.5 426.167,335.5 426.5,335.5C 422.971,349.463 416.971,362.13 408.5,373.5C 408.643,371.738 408.309,370.071 407.5,368.5C 408.391,367.41 409.391,367.41 410.5,368.5C 411.105,365.694 412.438,363.36 414.5,361.5C 414.167,360.833 413.833,360.167 413.5,359.5C 407.598,364.735 401.765,364.735 396,359.5C 394.631,354.509 395.797,350.342 399.5,347C 404.857,344.738 409.69,345.571 414,349.5C 414.14,352.043 414.806,354.377 416,356.5C 420.02,349.964 423.186,342.964 425.5,335.5 Z"/></g>
<g><path style="opacity:1" fill="#b8f3f6" d="M 65.5,343.5 C 75.3374,342.003 79.3374,346.003 77.5,355.5C 74.263,359.056 70.263,360.223 65.5,359C 62.6524,356.859 60.3191,354.192 58.5,351C 60.3256,348.008 62.6589,345.508 65.5,343.5 Z"/></g>
<g><path style="opacity:1" fill="#af8dee" d="M 223.5,346.5 C 222.25,348.154 220.916,349.821 219.5,351.5C 207.261,358.291 194.927,365.125 182.5,372C 180.655,373.128 178.655,373.628 176.5,373.5C 191.669,363.745 207.336,354.745 223.5,346.5 Z"/></g>
<g><path style="opacity:1" fill="#9f74f3" d="M 366.5,348.5 C 348.29,372.857 324.624,389.69 295.5,399C 282.204,400.332 268.871,400.832 255.5,400.5C 223.174,398.85 190.674,397.517 158,396.5C 151.793,396.496 145.96,395.829 140.5,394.5C 140.5,393.833 140.833,393.5 141.5,393.5C 141.62,394.586 142.287,395.253 143.5,395.5C 180.768,387.313 218.102,379.647 255.5,372.5C 255.468,377.213 257.801,378.713 262.5,377C 263.768,374.837 263.768,372.67 262.5,370.5C 297.06,362.862 331.727,355.528 366.5,348.5 Z"/></g>
<g><path style="opacity:1" fill="#bf9dfc" d="M 338.5,360.5 C 344.158,359.679 345.825,361.846 343.5,367C 338.126,367.762 336.459,365.595 338.5,360.5 Z"/></g>
<g><path style="opacity:1" fill="#bc9bfb" d="M 262.5,370.5 C 263.768,372.67 263.768,374.837 262.5,377C 257.801,378.713 255.468,377.213 255.5,372.5C 255.611,371.883 255.944,371.383 256.5,371C 258.473,370.505 260.473,370.338 262.5,370.5 Z"/></g>
<g><path style="opacity:0.933" fill="#b998f3" d="M 176.5,373.5 C 174.948,376.112 172.614,377.445 169.5,377.5C 171.336,375.412 173.669,374.079 176.5,373.5 Z"/></g>
<g><path style="opacity:0.792" fill="#c0a2f2" d="M 169.5,377.5 C 168.055,379.063 166.389,380.396 164.5,381.5C 163.833,381.5 163.167,381.5 162.5,381.5C 164.336,379.412 166.669,378.079 169.5,377.5 Z"/></g>
<g><path style="opacity:1" fill="#875adc" d="M 162.5,381.5 C 163.167,381.5 163.833,381.5 164.5,381.5C 163.365,383.213 161.698,383.88 159.5,383.5C 159.973,382.094 160.973,381.427 162.5,381.5 Z"/></g>
<g><path style="opacity:1" fill="#b9f1f3" d="M 135.5,127.5 C 135.5,174.833 135.5,222.167 135.5,269.5C 135.168,311.956 135.501,354.29 136.5,396.5C 136.5,396.833 136.5,397.167 136.5,397.5C 135.678,419.094 135.178,440.761 135,462.5C 130.544,457.89 126.71,452.89 123.5,447.5C 125.307,410.834 126.64,373.834 127.5,336.5C 127.5,335.833 127.833,335.5 128.5,335.5C 130.5,335.5 132.5,335.5 134.5,335.5C 134.167,265.998 134.501,196.665 135.5,127.5 Z"/></g>
<g><path style="opacity:1" fill="#a486e3" d="M 140.5,394.5 C 145.96,395.829 151.793,396.496 158,396.5C 190.674,397.517 223.174,398.85 255.5,400.5C 249.5,400.5 243.5,400.5 237.5,400.5C 203.824,399.799 170.157,398.799 136.5,397.5C 136.5,397.167 136.5,396.833 136.5,396.5C 137.514,395.326 138.847,394.66 140.5,394.5 Z"/></g>
<g><path style="opacity:1" fill="#bba3ea" d="M 408.5,373.5 C 390.664,395.742 367.33,406.076 338.5,404.5C 313.992,403.852 289.659,402.852 265.5,401.5C 294.816,402.009 323.983,402.342 353,402.5C 360.79,401.809 368.29,399.976 375.5,397C 376.723,393.946 378.889,391.113 382,388.5C 383.466,390.325 385.299,390.825 387.5,390C 390.854,388.702 393.188,386.536 394.5,383.5C 395.833,383.5 397.167,383.5 398.5,383.5C 400.79,379.21 404.123,375.877 408.5,373.5 Z"/></g>
</svg>